<?xml version="1.0" standalone="no"?>
<!DOCTYPE svg PUBLIC "-//W3C//DTD SVG 1.0//EN" "http://www.w3.org/TR/2001/REC-SVG-20010904/DTD/svg10.dtd">
<svg xmlns="http://www.w3.org/2000/svg" xmlns:xlink="http://www.w3.org/1999/xlink" id="body_1" width="52" height="52">

<g transform="matrix(0.030570252 0 0 0.0304628 0 0)">
	<g transform="matrix(1.3330721 0 0 1.3335936 0 0)">
		<g transform="matrix(0.1 0 -0 -0.1 0 1280)">
            <path d="M6085 12793C 5305 12748 4664 12608 4000 12340C 2828 11866 1827 11058 1108 10005C 563 9207 202 8277 65 7316C 17 6978 6 6797 6 6395C 6 5999 17 5828 66 5490C 328 3644 1384 2003 2958 997C 3836 436 4801 112 5880 18C 6098 -1 6701 2 6925 23C 7363 65 7757 139 8140 250C 9848 744 11273 1934 12070 3530C 12294 3980 12419 4316 12565 4870C 12710 5418 12754 5758 12754 6330C 12755 6745 12732 7028 12664 7435C 12438 8798 11806 10017 10828 10975C 10054 11735 9150 12261 8105 12560C 7557 12717 7361 12750 6715 12790C 6578 12799 6207 12801 6085 12793zM6607 12750L6670 12750L6619 12654C 6568 12559 6567 12558 6557 12429C 6551 12353 6551 12295 6556 12290C 6566 12280 6732 12229 6737 12234C 6739 12236 6748 12276 6757 12323C 6773 12404 6777 12413 6821 12456L6821 12456L6868 12502L7187 12360C 7362 12281 7552 12194 7610 12165L7610 12165L7715 12113L7978 12134L8240 12156L8313 12228C 8353 12268 8388 12300 8392 12300C 8395 12300 8566 12219 8772 12120L8772 12120L9145 11940L9313 11940L9482 11940L9578 11883C 9874 11710 10218 11463 10500 11221C 10613 11124 10822 10928 10817 10924C 10815 10922 10738 10949 10644 10984C 10236 11136 9962 11270 9827 11382L9827 11382L9779 11422L9408 11451L9036 11481L8953 11398C 8907 11353 8870 11309 8870 11300C 8871 11292 8888 11245 8909 11195L8909 11195L8947 11105L9018 11102C 9058 11100 9090 11096 9091 11092C 9091 11088 9097 11029 9104 10960C 9111 10891 9116 10834 9116 10833C 9115 10832 9061 10863 8996 10902C 8903 10957 8876 10970 8869 10959C 8864 10951 8828 10887 8788 10817C 8725 10705 8713 10690 8695 10695C 8684 10699 8648 10704 8615 10707C 8582 10709 8546 10715 8535 10720C 8524 10725 8504 10730 8490 10732C 8472 10734 8460 10746 8447 10773C 8427 10814 8420 10815 8339 10800C 8303 10793 8276 10780 8255 10760L8255 10760L8225 10731L8180 10765C 8137 10798 8131 10800 8052 10800C 7963 10800 7968 10803 7946 10733C 7940 10714 7944 10711 7990 10705L7990 10705L8040 10698L7995 10642C 7954 10589 7952 10584 7965 10563C 7986 10532 7985 10530 7942 10530C 7893 10530 7771 10561 7686 10595C 7612 10625 7532 10629 7480 10607C 7438 10590 7377 10531 7246 10382L7246 10382L7147 10268L7226 10189L7305 10110L7362 10110C 7394 10110 7454 10100 7495 10088C 7559 10069 7571 10062 7579 10038C 7590 10006 7603 10005 7783 10017L7783 10017L7881 10023L7998 10116C 8121 10215 8121 10215 8281 10242C 8346 10253 8347 10253 8454 10210C 8552 10171 8566 10168 8618 10174C 8772 10192 8793 10193 8786 10182C 8776 10166 8807 10100 8866 10010C 8893 9969 8938 9880 8966 9814C 8995 9747 9041 9659 9068 9617C 9113 9551 9120 9534 9127 9469C 9135 9398 9136 9395 9160 9397C 9174 9399 9240 9395 9308 9389C 9376 9383 9433 9380 9436 9383C 9439 9385 9424 9414 9404 9446C 9377 9490 9349 9517 9294 9554C 9233 9596 9219 9611 9204 9649C 9195 9674 9156 9775 9118 9873C 9079 9971 9050 10053 9052 10054C 9053 10056 9075 10065 9100 10074C 9152 10094 9151 10095 9200 10000C 9216 9970 9251 9911 9279 9871C 9328 9797 9331 9795 9447 9736L9447 9736L9565 9675L9570 9589C 9578 9459 9594 9439 9740 9385L9740 9385L9855 9343L9940 9388C 10061 9452 10062 9453 10089 9503L10089 9503L10114 9548L10072 9604L10029 9660L10138 9660L10248 9660L10333 9567C 10416 9477 10421 9473 10564 9402C 10682 9344 10710 9326 10706 9312C 10704 9303 10699 9268 10695 9236L10695 9236L10688 9177L10776 9089L10864 9000L10830 8965C 10811 8946 10793 8930 10788 8930C 10765 8930 10386 9107 10273 9171L10273 9171L10141 9245L9918 9233C 9795 9226 9676 9218 9654 9215L9654 9215L9613 9209L9617 9117C 9619 9066 9623 9015 9625 9004C 9628 8989 9681 8949 9793 8876C 9925 8790 9990 8756 10133 8696C 10287 8632 10580 8475 10596 8449C 10599 8444 10596 8394 10590 8338C 10579 8244 10573 8226 10526 8138C 10498 8084 10472 8040 10467 8040C 10463 8040 10424 8064 10380 8093C 10325 8130 10246 8203 10118 8336L10118 8336L9935 8525L9884 8526C 9835 8526 9829 8529 9677 8649L9677 8649L9520 8771L9448 8768L9376 8765L9355 8680L9334 8595L9299 8598C 9235 8604 9230 8608 9229 8653C 9229 8676 9226 8703 9222 8712C 9218 8721 9087 8824 8930 8940C 8773 9056 8646 9154 8647 9156C 8647 9159 8677 9194 8713 9234C 8776 9304 8781 9308 8859 9330C 8904 9342 8940 9356 8940 9360C 8940 9363 8919 9398 8892 9436L8892 9436L8845 9505L8791 9508C 8742 9511 8726 9519 8619 9593L8619 9593L8500 9674L8385 9646L8270 9618L8198 9676C 8159 9709 8092 9764 8051 9798L8051 9798L7975 9862L7878 9856C 7731 9848 7588 9870 7455 9920L7455 9920L7345 9962L7210 9950L7075 9938L6930 9836L6785 9734L6650 9711C 6527 9691 6509 9685 6445 9645C 6407 9621 6341 9592 6300 9580C 6230 9560 6223 9555 6185 9504L6185 9504L6145 9449L6019 9455L5894 9461L5759 9340C 5673 9262 5623 9209 5618 9192C 5614 9177 5595 9093 5574 9004L5574 9004L5537 8844L5405 8704C 5277 8569 5273 8563 5257 8498C 5247 8459 5240 8391 5240 8336C 5240 8245 5242 8235 5290 8115C 5354 7954 5436 7790 5618 7457L5618 7457L5765 7190L5822 7155C 5876 7123 5889 7120 5988 7114L5988 7114L6095 7107L6233 6998C 6330 6923 6380 6890 6398 6890C 6413 6890 6515 6883 6625 6875C 6735 6867 6830 6860 6835 6860C 6841 6860 6861 6835 6880 6804L6880 6804L6914 6748L6966 6755L7018 6761L7110 6654L7203 6548L7244 6553C 7267 6556 7303 6562 7326 6565L7326 6565L7366 6572L7392 6393L7417 6215L7354 6126C 7319 6077 7257 6008 7217 5973L7217 5973L7143 5909L7172 5742C 7187 5649 7211 5440 7224 5272C 7249 4970 7249 4970 7229 4900C 7191 4763 7191 4763 7060 4676L7060 4676L6941 4597L6798 4171L6656 3745L6700 3528L6744 3311L6716 3124L6688 2936L6600 2821L6512 2705L6505 2591C 6500 2514 6490 2454 6475 2409L6475 2409L6452 2342L6540 2316L6628 2290L6728 2335L6827 2380L6951 2380L7075 2380L7283 2313L7492 2246L7623 2312C 7696 2349 7853 2437 7972 2508L7972 2508L8189 2637L8296 2648C 8355 2655 8407 2665 8411 2671C 8414 2677 8423 2755 8431 2843L8431 2843L8444 3004L8501 3070L8559 3137L8657 3149C 8814 3169 8820 3171 8919 3254L8919 3254L9011 3330L9089 3330L9167 3330L9446 3580C 9760 3862 9734 3825 9765 4030C 9774 4088 9791 4183 9804 4242C 9827 4348 9828 4350 9935 4508L9935 4508L10042 4667L10109 4674C 10145 4677 10192 4680 10214 4680C 10238 4680 10295 4699 10369 4731C 10467 4775 10519 4808 10710 4948L10710 4948L10936 5113L11010 5239C 11143 5466 11190 5548 11190 5557C 11190 5562 11156 5578 11115 5593L11115 5593L11040 5619L11002 5579L10965 5539L10872 5614C 10755 5709 10761 5705 10752 5679C 10746 5665 10740 5700 10732 5790C 10724 5878 10723 5928 10730 5940C 10753 5984 10742 6014 10677 6082C 10604 6157 10564 6233 10495 6420C 10452 6536 10448 6557 10434 6711C 10422 6849 10422 6888 10433 6941C 10441 6984 10444 7040 10439 7110C 10433 7219 10437 7554 10446 7626L10446 7626L10451 7667L10526 7650C 10567 7640 10604 7629 10607 7626C 10611 7622 10603 7517 10589 7392L10589 7392L10564 7165L10612 7061L10660 6958L10660 6781C 10660 6513 10678 6386 10740 6202L10740 6202L10792 6050L10913 5897C 10979 5814 11034 5743 11036 5742C 11037 5740 11063 5757 11093 5779C 11146 5820 11147 5820 11236 5820L11236 5820L11325 5821L11610 6136L11895 6451L11912 6533C 11921 6578 11929 6622 11930 6631C 11930 6649 11869 6736 11727 6920C 11623 7054 11617 7057 11534 6997C 11504 6976 11476 6961 11472 6964C 11469 6968 11461 7011 11454 7061C 11444 7136 11434 7164 11398 7228C 11362 7291 11350 7304 11333 7302C 11318 7300 11305 7308 11294 7325C 11280 7346 11279 7365 11284 7438C 11288 7486 11297 7552 11303 7584C 11315 7643 11315 7644 11378 7678C 11413 7697 11442 7711 11444 7709C 11454 7695 11554 7410 11572 7341L11572 7341L11595 7257L11730 7141C 11804 7077 11937 6956 12025 6871L12025 6871L12184 6717L12228 6576C 12253 6499 12287 6365 12304 6280L12304 6280L12336 6125L12405 6098L12475 6072L12472 5873C 12470 5764 12457 5500 12444 5286C 12430 5072 12420 4896 12422 4895C 12424 4894 12444 4883 12468 4871C 12491 4859 12510 4845 12510 4840C 12510 4809 12402 4447 12344 4284C 12101 3597 11756 2978 11303 2412C 10364 1240 9034 438 7565 156C 7166 80 6815 48 6375 48C 5915 48 5558 82 5144 165L5144 165L4982 197L4887 296C 4835 351 4782 408 4769 423C 4744 452 4729 457 3335 892L3335 892L3075 973L2905 1085C 2178 1563 1567 2175 1087 2906L1087 2906L981 3067L929 3435C 878 3802 877 3803 840 3869C 819 3905 790 3978 774 4029L774 4029L746 4123L763 4259C 775 4358 784 4398 796 4405C 804 4411 839 4433 873 4455L873 4455L934 4495L932 4550C 931 4580 927 4655 924 4715L924 4715L919 4825L1024 4902L1130 4980L1130 5087L1130 5195L1371 5510C 1503 5683 1615 5829 1620 5834C 1626 5840 1666 5832 1722 5815L1722 5815L1815 5788L1854 5832C 1879 5859 1995 6063 2155 6360L2155 6360L2416 6844L2560 6873L2704 6902L2745 6948C 2825 7039 2822 7032 2810 7105C 2801 7158 2782 7205 2712 7335L2712 7335L2625 7497L2505 7572L2385 7647L2382 7832L2380 8016L2202 8111L2025 8205L2027 8449L2030 8693L2070 8767L2111 8841L2071 8907C 2033 8970 2025 8977 1923 9034L1923 9034L1815 9095L1791 9200L1767 9305L1784 9487C 1794 9587 1798 9675 1793 9683C 1781 9703 1569 9980 1566 9980C 1564 9980 1494 9953 1411 9920C 1263 9862 1256 9860 1164 9860C 1112 9860 1070 9862 1070 9865C 1070 9876 1211 10080 1312 10215C 1644 10660 2055 11080 2489 11418C 2674 11562 2663 11557 2790 11559C 2875 11561 2941 11554 3080 11529L3080 11529L3261 11497L3298 11533C 3320 11554 3345 11595 3358 11630C 3376 11676 3401 11711 3459 11772L3459 11772L3536 11853L3619 11858C 3691 11862 3710 11867 3758 11896C 3824 11936 3950 11986 4017 11999C 4044 12005 4198 12019 4360 12031L4360 12031L4655 12052L4686 12082C 4703 12098 4739 12138 4766 12171C 4814 12229 4816 12230 4865 12230C 4934 12229 5059 12212 5092 12199C 5107 12193 5121 12177 5125 12162C 5128 12148 5141 12123 5152 12107C 5168 12085 5171 12068 5168 12030C 5163 11986 5165 11982 5180 11990C 5190 11995 5242 12046 5295 12102C 5382 12195 5400 12221 5479 12370L5479 12370L5567 12535L5636 12542C 5674 12546 5739 12552 5781 12555L5781 12555L5857 12561L5903 12643L5950 12725L5907 12731L5865 12737L5915 12740C 6123 12752 6314 12757 6420 12754C 6489 12752 6573 12750 6607 12750zM223 7247C 260 7098 310 6871 334 6744L334 6744L378 6513L370 6294L362 6075L456 5904C 508 5811 550 5729 550 5722C 550 5716 529 5637 504 5548L504 5548L458 5385L447 5085L437 4784L498 4610C 562 4429 585 4326 654 3914L654 3914L686 3722L746 3624C 791 3550 820 3484 866 3348C 900 3249 924 3172 919 3177C 905 3192 782 3417 712 3557C 366 4249 157 4977 75 5775C 32 6191 38 6757 90 7175C 113 7353 141 7520 149 7520C 152 7520 186 7397 223 7247z" stroke="none" fill="#03A9F4" fill-rule="nonzero" />
            <path d="M8225 11360L8235 11230L8150 11133C 8091 11066 8055 11015 8037 10971C 8022 10936 8011 10906 8013 10904C 8017 10899 8474 10921 8479 10926C 8486 10932 8440 11078 8400 11180C 8379 11232 8357 11311 8350 11355C 8343 11399 8334 11441 8330 11449C 8323 11462 8252 11489 8225 11490C 8218 11490 8218 11448 8225 11360z" stroke="none" fill="#03A9F4" fill-rule="nonzero" />
            <path d="M9968 3259L9831 3149L9668 3138L9505 3127L9418 3061C 9333 2997 9330 2993 9300 2915C 9270 2838 9264 2831 9164 2742C 9058 2647 9026 2630 8958 2630C 8916 2630 8913 2625 8936 2592C 8951 2571 8949 2567 8891 2502L8891 2502L8830 2435L8830 2353C 8830 2270 8830 2270 8856 2270C 8889 2270 9191 2300 9206 2305C 9212 2307 9345 2451 9501 2625C 9657 2800 9803 2963 9825 2987C 9862 3028 9871 3032 9935 3042C 10004 3053 10006 3053 10088 3134C 10133 3178 10170 3219 10170 3225C 10170 3242 10119 3370 10112 3370C 10108 3369 10043 3320 9968 3259z" stroke="none" fill="#03A9F4" fill-rule="nonzero" />
		</g>
	</g>
</g>
</svg>