<?xml version="1.0" encoding="iso-8859-1"?>
<!-- Generator: Adobe Illustrator 19.0.0, SVG Export Plug-In . SVG Version: 6.00 Build 0)  -->
<svg version="1.1" id="Layer_1" xmlns="http://www.w3.org/2000/svg" xmlns:xlink="http://www.w3.org/1999/xlink" x="0px" y="0px"
	 viewBox="0 0 511.992 511.992" style="enable-background:new 0 0 511.992 511.992;" xml:space="preserve">
<rect x="240" y="358.988" width="32" height="77.528"/>
<polygon points="155.904,456.428 166.568,424.428 345.432,424.428 356.096,456.428 "/>
<path style="fill:#FF583E;" d="M37.296,362.62C21.144,362.62,8,349.476,8,333.316V92.868c0-16.16,13.144-29.296,29.296-29.296
	h437.408c16.16,0,29.296,13.144,29.296,29.296v240.456c0,16.16-13.144,29.296-29.296,29.296H37.296z"/>
<path d="M474.704,71.564c11.744,0,21.296,9.552,21.296,21.296v240.456c0,11.744-9.552,21.296-21.296,21.296H37.296
	C25.552,354.612,16,345.06,16,333.316V92.86c0-11.744,9.552-21.296,21.296-21.296H474.704 M474.704,55.564H37.296
	C16.784,55.564,0,72.348,0,92.86v240.456c0,20.512,16.784,37.296,37.296,37.296h437.4c20.512,0,37.296-16.784,37.296-37.296V92.86
	C512,72.348,495.216,55.564,474.704,55.564L474.704,55.564z"/>
<g>
	<path style="fill:#FFFFFF;" d="M250.504,140.468c36.656,0,66.48,29.824,66.48,66.48s-29.824,66.48-66.48,66.48
		s-66.48-29.824-66.48-66.48S213.848,140.468,250.504,140.468 M250.504,124.468c-45.552,0-82.48,36.928-82.48,82.48
		s36.928,82.48,82.48,82.48s82.48-36.928,82.48-82.48S296.064,124.468,250.504,124.468L250.504,124.468z"/>
	
		<rect x="316.516" y="258.404" transform="matrix(-0.7072 0.707 -0.707 -0.7072 752.3969 249.5937)" style="fill:#FFFFFF;" width="16" height="44.376"/>
</g>
<g>
</g>
<g>
</g>
<g>
</g>
<g>
</g>
<g>
</g>
<g>
</g>
<g>
</g>
<g>
</g>
<g>
</g>
<g>
</g>
<g>
</g>
<g>
</g>
<g>
</g>
<g>
</g>
<g>
</g>
</svg>
