<?xml version="1.0" encoding="iso-8859-1"?>
<!-- Generator: Adobe Illustrator 16.0.0, SVG Export Plug-In . SVG Version: 6.00 Build 0)  -->
<!DOCTYPE svg PUBLIC "-//W3C//DTD SVG 1.1//EN" "http://www.w3.org/Graphics/SVG/1.1/DTD/svg11.dtd">
<svg version="1.1" id="Capa_1" xmlns="http://www.w3.org/2000/svg" xmlns:xlink="http://www.w3.org/1999/xlink" x="0px" y="0px"
	 width="942px" height="942px" viewBox="0 0 942 942" style="enable-background:new 0 0 942 942;" xml:space="preserve">
<g>
	<g>
		<path d="M0,102v630h89.303c12.165,61.489,66.505,108,131.512,108c65.007,0,119.347-46.511,131.512-108h237.348
			c12.165,61.489,66.505,108,131.513,108c65.007,0,119.347-46.511,131.512-108H942V391.577L642.413,102H0z M220.814,772
			c-27.176,0-50.563-16.498-60.695-40c-3.449-8.002-5.369-16.812-5.369-26.062c0-15.909,5.654-30.521,15.056-41.938
			c12.126-14.723,30.489-24.127,51.008-24.127s38.881,9.404,51.008,24.127c9.402,11.415,15.056,26.027,15.056,41.938
			c0,9.252-1.919,18.062-5.369,26.062C271.378,755.502,247.99,772,220.814,772z M721.186,772c-27.176,0-50.562-16.498-60.694-40
			c-3.449-8.002-5.369-16.812-5.369-26.062c0-15.909,5.654-30.521,15.056-41.938c12.126-14.723,30.489-24.127,51.008-24.127
			c20.52,0,38.882,9.404,51.009,24.127c9.401,11.415,15.056,26.027,15.056,41.938c0,9.252-1.919,18.062-5.369,26.062
			C771.749,755.502,748.361,772,721.186,772z M874,664h-25.476c-17.646-53.445-68.057-92.127-127.339-92.127
			c-59.281,0-109.692,38.682-127.339,92.127H348.153c-17.646-53.445-68.057-92.127-127.338-92.127S111.122,610.555,93.476,664H68
			V170h526.667v270H874V664z M662.667,372V216.15L823.903,372H662.667z"/>
		<path d="M114.755,440H551V207.884H114.755V440z M182.755,275.884H483V372H182.755V275.884z"/>
	</g>
</g>
<g>
</g>
<g>
</g>
<g>
</g>
<g>
</g>
<g>
</g>
<g>
</g>
<g>
</g>
<g>
</g>
<g>
</g>
<g>
</g>
<g>
</g>
<g>
</g>
<g>
</g>
<g>
</g>
<g>
</g>
</svg>
