<svg xmlns="http://www.w3.org/2000/svg" width="167.635" height="45.957" viewBox="0 0 167.635 45.957">
  <g id="CDL_MarketHub" data-name="CDL MarketHub" transform="translate(-129.4 -208.492)">
    <path id="Path_44169" data-name="Path 44169" d="M149,229.4c.795,1.467,1.528,3,2.323,4.585.428.795.795,1.651,1.223,2.446h1.1c-1.162-2.2-2.323-4.708-3.424-7.031Z" transform="translate(-7.617 -8.515)" fill="none"/>
    <path id="Path_44170" data-name="Path 44170" d="M190.065,244.878c0-.061.061-.183.061-.245.061-.245.061-.428.122-.673h-2.69a2.464,2.464,0,0,1-.245.734c-.856,1.467-22.5,4.708-25.923,3.791-1.039-.245-2.323-2.079-3.729-4.585H156.5c2.14,4.035,4.28,7.276,6.481,7.276,8.193,0,24.394-2.751,26.6-4.952A3.881,3.881,0,0,0,190.065,244.878Z" transform="translate(-10.531 -14.149)" fill="none"/>
    <path id="Path_44171" data-name="Path 44171" d="M207.8,236.47h2.568c.122-1.1.183-2.323.245-3.424.061-1.162.122-2.384.245-3.546h-2.323C208.35,231.884,208.045,234.513,207.8,236.47Z" transform="translate(-30.467 -8.553)" fill="none"/>
    <path id="Path_44172" data-name="Path 44172" d="M151.1,229.4c1.1,2.323,2.262,4.83,3.424,7.031h31.3c.245-1.956.55-4.585.734-7.031Z" transform="translate(-8.433 -8.515)" fill="#59a8d1"/>
    <path id="Path_44173" data-name="Path 44173" d="M185.428,218.6H147.4c.428.856.856,1.773,1.345,2.812h36.439C185.306,220.312,185.367,219.334,185.428,218.6Z" transform="translate(-6.995 -4.318)" fill="#077dbb"/>
    <path id="Path_44174" data-name="Path 44174" d="M162.029,249.824c3.424.856,25.067-2.384,25.923-3.791a3.352,3.352,0,0,0,.245-.734H158.3C159.706,247.746,160.99,249.519,162.029,249.824Z" transform="translate(-11.231 -14.693)" fill="#c7e2ef"/>
    <path id="Path_44175" data-name="Path 44175" d="M185.4,212.817c-3.118,0-4.219,3.607-4.769,7.887h-40.29c-2.812-4.952-5.93-8.8-10.027-8.8a.917.917,0,1,0,0,1.834c2.935,0,5.441,3.057,7.826,6.97h-.367a.917.917,0,0,0,0,1.834h1.406c.978,1.773,1.9,3.607,2.751,5.38.245.55.55,1.1.795,1.59h-.367a.917.917,0,1,0,0,1.834h1.284c2.69,5.2,5.258,9.171,8.621,9.171,5.808,0,17.975-1.59,24.272-3.668-4.647,4.035-13.817,5.808-20.971,7.214-6.909,1.345-10.271,2.079-10.638,4.1a1.862,1.862,0,0,0,.489,1.651c1.1,1.223,3.852,1.406,5.441,1.406v1.162a2.507,2.507,0,1,0,1.834,0v-1.162h20.848v1.162a2.507,2.507,0,1,0,1.834,0v-1.162h4.952a.9.9,0,0,0,.917-.917.94.94,0,0,0-.917-.917H151.716c-2.507.122-4.769-.306-4.952-.795.428-.856,5.441-1.834,9.11-2.568,10.027-1.957,23.722-4.647,25.373-13.389,0-.061,0-.122.061-.122v-.061h0a3.61,3.61,0,0,0,.122-.856h.856a.917.917,0,1,0,0-1.834h-.611c.061-.978.183-2.079.245-3.3.061-1.162.122-2.446.245-3.668h.673a.917.917,0,0,0,0-1.834h-.428c.428-3.24,1.223-5.992,2.874-5.992a.9.9,0,0,0,.917-.917C186.381,213.245,185.953,212.817,185.4,212.817Zm-39.5,18.708h33.749c-.061.245-.061.489-.122.673,0,.061-.061.183-.061.245a2.783,2.783,0,0,1-.55,1.406c-2.2,2.2-18.342,4.952-26.6,4.952C150.248,238.8,148.047,235.5,145.907,231.526Zm34.238-5.319c-.061,1.1-.122,2.323-.245,3.424H144.929c-.428-.795-.795-1.651-1.223-2.446-.734-1.528-1.528-3.057-2.323-4.585h39.068C180.329,223.822,180.267,224.984,180.145,226.206Z" transform="translate(0 -3.409)" fill="#030306"/>
    <line id="Line_20" data-name="Line 20" y2="29.652" transform="translate(191.578 215.991)" fill="none" stroke="#fff" stroke-linecap="round" stroke-linejoin="round" stroke-width="0.772"/>
    <g id="Group_56503" data-name="Group 56503" transform="translate(0 8.002)">
      <g id="Group_56505" data-name="Group 56505" transform="translate(-2 -16.721)">
        <path id="Path_44573" data-name="Path 44573" d="M12.9-8.46h1.647V5.7H12.684L12.7-4.544,8.487,3.429H7.081L2.844-4.444,2.864,5.7H1V-8.46H2.663L7.8,1.34Zm8.816,4.117a3.9,3.9,0,0,1,2.922.984A4.15,4.15,0,0,1,25.6-.367V5.7H23.648V4.071a2.81,2.81,0,0,1-1.135,1.315,3.349,3.349,0,0,1-1.757.452,3.978,3.978,0,0,1-1.767-.392,3.036,3.036,0,0,1-1.255-1.094,2.836,2.836,0,0,1-.452-1.566,2.412,2.412,0,0,1,.552-1.677A3.293,3.293,0,0,1,19.662.235a18.356,18.356,0,0,1,3.5-.261h.462V-.608a2.327,2.327,0,0,0-.472-1.627,2.029,2.029,0,0,0-1.536-.5,6.323,6.323,0,0,0-3.334,1.024l-.6-1.426a6.635,6.635,0,0,1,1.9-.874A7.5,7.5,0,0,1,21.721-4.343Zm-.6,8.675a2.361,2.361,0,0,0,1.807-.753,2.727,2.727,0,0,0,.7-1.938V1.119h-.361a15.645,15.645,0,0,0-2.41.141,2.364,2.364,0,0,0-1.2.472,1.229,1.229,0,0,0-.361.954A1.532,1.532,0,0,0,19.8,3.86,1.865,1.865,0,0,0,21.118,4.332ZM34.332-2.636l-1.225.12a3,3,0,0,0-2.078.884A2.81,2.81,0,0,0,30.4.256V5.7H28.368V-4.1h1.968V-2.4A3.452,3.452,0,0,1,33.529-4.3l.663-.04ZM44.955,5.7h-2.57L37.746,1.079V5.7H35.718V-8.46h2.028V.316l4.3-4.4h2.51L39.915.617Zm9.378-4.559H47.405q.221,3.113,3.093,3.113a4.733,4.733,0,0,0,3.052-1.1l.623,1.426a5.094,5.094,0,0,1-1.687.924,6.323,6.323,0,0,1-2.048.341,5.028,5.028,0,0,1-3.705-1.345A5,5,0,0,1,45.377.778a5.811,5.811,0,0,1,.592-2.671A4.355,4.355,0,0,1,47.636-3.7a4.661,4.661,0,0,1,2.44-.643A3.95,3.95,0,0,1,53.2-3.058,5.187,5.187,0,0,1,54.334.5Zm-4.217-4a2.435,2.435,0,0,0-1.858.733,3.484,3.484,0,0,0-.833,2.1h5.161a3.356,3.356,0,0,0-.693-2.1A2.221,2.221,0,0,0,50.117-2.857ZM61.1,4.272a6.682,6.682,0,0,0,.9-.06l-.1,1.546a6.6,6.6,0,0,1-1.044.08A3.865,3.865,0,0,1,58.019,4.9a3.657,3.657,0,0,1-.934-2.7V-2.536H55.177V-4.1h1.908V-7.054h2.028V-4.1H61.8v1.566H59.113V2.123Q59.113,4.272,61.1,4.272ZM73.753-8.46H75.8V5.7H73.753V-.648H65.841V5.7H63.792V-8.46h2.048v6.125h7.912ZM87.449-4.1V5.7H85.481V4.111A3.145,3.145,0,0,1,84.206,5.4a3.745,3.745,0,0,1-1.817.442q-3.575,0-3.575-3.936v-6h2.028V1.882a2.643,2.643,0,0,0,.482,1.747,1.852,1.852,0,0,0,1.486.562,2.474,2.474,0,0,0,1.9-.763A2.852,2.852,0,0,0,85.421,1.4V-4.1Zm8.093-.241a4.153,4.153,0,0,1,2.269.623,4.183,4.183,0,0,1,1.536,1.767A6.081,6.081,0,0,1,99.9.717a6.164,6.164,0,0,1-.552,2.671A4.272,4.272,0,0,1,97.8,5.2a4.07,4.07,0,0,1-2.259.643,3.922,3.922,0,0,1-1.948-.472,3.107,3.107,0,0,1-1.285-1.356V5.7H90.28V-8.46h2.028V-2.5a3.168,3.168,0,0,1,1.285-1.366A3.857,3.857,0,0,1,95.542-4.343ZM95.06,4.232A2.456,2.456,0,0,0,97.1,3.308,4.072,4.072,0,0,0,97.831.717a3.946,3.946,0,0,0-.723-2.54,2.484,2.484,0,0,0-2.048-.894,2.444,2.444,0,0,0-2.038.9,4.065,4.065,0,0,0-.713,2.57,4.065,4.065,0,0,0,.713,2.57A2.444,2.444,0,0,0,95.06,4.232Z" transform="translate(199.135 257.33)" fill="#59a8d1"/>
        <path id="Path_44572" data-name="Path 44572" d="M12.594,9.919A12.832,12.832,0,0,1,6.452,8.53,9.572,9.572,0,0,1,2.469,4.58,12.485,12.485,0,0,1,1.08-1.461,14.007,14.007,0,0,1,2.653-8.222a10.94,10.94,0,0,1,4.435-4.485,13.571,13.571,0,0,1,6.644-1.573,14.577,14.577,0,0,1,4.468.669A11.978,11.978,0,0,1,21.9-11.7L19.656-7.318a11.331,11.331,0,0,0-2.795-1.573,8.078,8.078,0,0,0-2.828-.5A6.06,6.06,0,0,0,9.079-7.285a8.889,8.889,0,0,0-1.74,5.824A7.416,7.416,0,0,0,8.711,3.375a4.956,4.956,0,0,0,4.05,1.657A12.347,12.347,0,0,0,18.853,2.99l1.573,4.351a8.544,8.544,0,0,1-3.364,1.874A14.342,14.342,0,0,1,12.594,9.919Zm12.719-23.9h9.606a13.3,13.3,0,0,1,6.175,1.356A9.745,9.745,0,0,1,45.16-8.774,11.547,11.547,0,0,1,46.6-2.9a13.645,13.645,0,0,1-1.573,6.761,10.339,10.339,0,0,1-4.535,4.284,15.829,15.829,0,0,1-7.112,1.473H23.471Zm7.5,18.643q3.916,0,5.79-1.824t1.874-5.774a5.959,5.959,0,0,0-1.64-4.535,6.647,6.647,0,0,0-4.753-1.556H31.069L30,4.664ZM49.344,9.618l1.874-23.6h6.158L55.87,4.631H65.911l-.368,4.987Z" transform="translate(195.982 232.49)" fill="#030306"/>
      </g>
    </g>
  </g>
</svg>
