<svg xmlns="http://www.w3.org/2000/svg" width="135.066" height="40.02" viewBox="0 0 135.066 40.02">
  <g id="Group_30" data-name="Group 30" transform="translate(0 0)">
    <path id="Path_127" data-name="Path 127" d="M231.706,970.442a5.709,5.709,0,0,1-5.97,5.408H102.61a5.71,5.71,0,0,1-5.97-5.408v-29.2a5.712,5.712,0,0,1,5.97-5.408H225.736a5.712,5.712,0,0,1,5.97,5.408Z" transform="translate(-96.64 -935.83)"/>
    <g id="Group_26" data-name="Group 26" transform="translate(8.208 6.222)">
      <path id="Path_128" data-name="Path 128" d="M155.338,1003.665a19.708,19.708,0,0,1-1.792,3.344c-1.163,1.771-2.8,3.977-4.836,4-1.806.016-2.27-1.175-4.721-1.161s-2.962,1.182-4.768,1.166c-2.031-.019-3.586-2.01-4.749-3.783-3.255-4.953-3.593-10.766-1.588-13.855a7.2,7.2,0,0,1,5.79-3.483c2.153,0,3.508,1.182,5.288,1.182,1.728,0,2.781-1.182,5.269-1.182a7.026,7.026,0,0,1,5.3,2.8A6.061,6.061,0,0,0,155.338,1003.665Z" transform="translate(-131.64 -983.434)" fill="#fff"/>
      <g id="Group_25" data-name="Group 25" transform="translate(11.387)">
        <path id="Path_129" data-name="Path 129" d="M184.515,966.837a6.034,6.034,0,0,0,1.341-4.477,6.526,6.526,0,0,0-4.217,2.268,5.613,5.613,0,0,0-1.379,4.367A5.518,5.518,0,0,0,184.515,966.837Z" transform="translate(-180.196 -962.36)" fill="#fff"/>
      </g>
    </g>
    <g id="Group_29" data-name="Group 29" transform="translate(37.154 6.28)">
      <g id="Group_27" data-name="Group 27" transform="translate(0.002 9.587)">
        <path id="Path_130" data-name="Path 130" d="M259.742,1004.42l-4.662,13.719h2.134l1.391-4.212h4.512l1.431,4.212h2.193l-4.681-13.719Zm1.1,2.256c.157.612.328,1.248.546,1.935l1.257,3.637h-3.574l1.238-3.661C260.5,1007.994,260.68,1007.354,260.847,1006.676Z" transform="translate(-255.08 -1004.202)" fill="#fff"/>
        <path id="Path_131" data-name="Path 131" d="M313.3,1019.59a3.884,3.884,0,0,0-3.3,1.583l-.082-1.365h-1.9l.012.174c.056.849.08,1.787.08,3.128v10.574h2.075v-4.934a3.643,3.643,0,0,0,2.838,1.219,4.283,4.283,0,0,0,3.145-1.337,5.672,5.672,0,0,0,1.388-3.994,5.531,5.531,0,0,0-1.205-3.647A3.954,3.954,0,0,0,313.3,1019.59Zm-.518,1.717c1.85,0,2.678,1.714,2.678,3.412,0,2.19-1.058,3.553-2.758,3.553a2.519,2.519,0,0,1-2.446-1.925,2.6,2.6,0,0,1-.073-.673V1024a3.022,3.022,0,0,1,.066-.511c.009-.056.021-.112.03-.169A2.63,2.63,0,0,1,312.783,1021.307Z" transform="translate(-295.605 -1015.814)" fill="#fff"/>
        <path id="Path_132" data-name="Path 132" d="M358.889,1019.59a3.884,3.884,0,0,0-3.3,1.583l-.082-1.365h-1.9l.009.174c.056.851.08,1.787.08,3.128v10.574h2.075v-4.934a3.643,3.643,0,0,0,2.838,1.219,4.292,4.292,0,0,0,3.147-1.337,5.683,5.683,0,0,0,1.388-3.994,5.52,5.52,0,0,0-1.208-3.647A3.954,3.954,0,0,0,358.889,1019.59Zm-.518,1.717c1.85,0,2.678,1.714,2.678,3.412,0,2.19-1.058,3.553-2.758,3.553a2.517,2.517,0,0,1-2.446-1.925,2.6,2.6,0,0,1-.073-.673V1024a3.05,3.05,0,0,1,.066-.514c.009-.056.021-.113.03-.166A2.63,2.63,0,0,1,358.371,1021.307Z" transform="translate(-330.503 -1015.814)" fill="#fff"/>
        <path id="Path_133" data-name="Path 133" d="M417.091,1009.522c-1.937-.75-2.559-1.339-2.559-2.43,0-.917.729-1.843,2.359-1.843a4.706,4.706,0,0,1,2.437.612l.176.108.586-1.733-.115-.068a6.014,6.014,0,0,0-3.023-.678c-2.648,0-4.5,1.562-4.5,3.8,0,1.8,1.158,3.065,3.644,3.968,1.761.659,2.418,1.332,2.418,2.488,0,1.309-1.011,2.12-2.638,2.12a5.683,5.683,0,0,1-2.992-.849l-.181-.115-.558,1.773.1.068a7.111,7.111,0,0,0,3.508.9c3.567,0,4.833-2.176,4.833-4.038C420.592,1011.688,419.577,1010.5,417.091,1009.522Z" transform="translate(-375.315 -1003.49)" fill="#fff"/>
        <path id="Path_134" data-name="Path 134" d="M452.567,1010.44l-2.036.64v1.724H449.04v1.658h1.491v5.082a3.887,3.887,0,0,0,.718,2.634,2.659,2.659,0,0,0,2.007.788,4.843,4.843,0,0,0,1.6-.249l.117-.042-.1-1.663-.2.061a3.156,3.156,0,0,1-.966.113c-.8,0-1.147-.509-1.147-1.7v-5.023h2.5V1012.8h-2.5Z" transform="translate(-403.554 -1008.81)" fill="#fff"/>
        <path id="Path_135" data-name="Path 135" d="M480.6,1019.59c-2.9,0-4.932,2.167-4.932,5.27,0,3.009,1.963,5.112,4.775,5.112h.019a4.894,4.894,0,0,0,4.932-5.291,5.253,5.253,0,0,0-1.323-3.672A4.624,4.624,0,0,0,480.6,1019.59Zm-.061,1.637c1.867,0,2.718,1.82,2.718,3.513,0,2.08-1.161,3.59-2.758,3.59h-.021c-1.574,0-2.718-1.484-2.718-3.532C477.764,1023.023,478.622,1021.227,480.541,1021.227Z" transform="translate(-423.939 -1015.814)" fill="#fff"/>
        <path id="Path_136" data-name="Path 136" d="M527.376,1019.686l-.124-.031a2.048,2.048,0,0,0-.516-.066,2.962,2.962,0,0,0-2.6,1.672l-.061-1.452H522.21l.012.174c.056.821.077,1.745.077,2.99l-.019,6.782h2.076v-5.291a5.345,5.345,0,0,1,.056-.8,2.293,2.293,0,0,1,2.183-2.092,4.965,4.965,0,0,1,.558.035l.223.023Z" transform="translate(-459.565 -1015.814)" fill="#fff"/>
        <path id="Path_137" data-name="Path 137" d="M548.823,1019.5c-2.763,0-4.693,2.207-4.693,5.37a4.642,4.642,0,0,0,4.892,5.011,7.942,7.942,0,0,0,3.286-.631l.124-.056-.4-1.548-.174.07a6.437,6.437,0,0,1-2.6.464,2.886,2.886,0,0,1-3.11-3.009l6.7.021.028-.134a4.59,4.59,0,0,0,.063-.865C552.94,1022.03,551.864,1019.5,548.823,1019.5Zm-.138,1.581a2.044,2.044,0,0,1,1.524.582,2.955,2.955,0,0,1,.715,1.932h-4.735A2.65,2.65,0,0,1,548.684,1021.08Z" transform="translate(-476.344 -1015.745)" fill="#fff"/>
      </g>
      <g id="Group_28" data-name="Group 28">
        <path id="Path_138" data-name="Path 138" d="M255.072,964.024a15.077,15.077,0,0,1,1.991-.134,4.438,4.438,0,0,1,2.922.8,2.842,2.842,0,0,1,1.027,2.34,3.285,3.285,0,0,1-1.039,2.523,4.814,4.814,0,0,1-3.2.936,14.293,14.293,0,0,1-1.7-.077v-6.388Zm.943,5.75a6.89,6.89,0,0,0,.943.037c1.991.009,3.072-1,3.072-2.755.012-1.55-.952-2.5-2.922-2.5a6,6,0,0,0-1.093.087Z" transform="translate(-255.07 -963.59)" fill="#fff"/>
        <path id="Path_139" data-name="Path 139" d="M286.543,976.315a2.339,2.339,0,0,1-2.483-2.4,2.4,2.4,0,0,1,2.568-2.477,2.323,2.323,0,0,1,2.5,2.39,2.415,2.415,0,0,1-2.568,2.486Zm.033-.638a1.66,1.66,0,0,0,1.574-1.82,1.584,1.584,0,1,0-1.585,1.82Z" transform="translate(-277.262 -969.369)" fill="#fff"/>
        <path id="Path_140" data-name="Path 140" d="M308.872,971.89l.7,2.362c.138.521.279,1.011.375,1.494h.033c.117-.471.288-.973.46-1.484l.847-2.371h.793l.8,2.331c.192.549.342,1.051.46,1.522h.033a13.12,13.12,0,0,1,.4-1.513l.739-2.34h.931l-1.67,4.662h-.856l-.793-2.225a14.54,14.54,0,0,1-.46-1.541h-.021a12.754,12.754,0,0,1-.471,1.55l-.835,2.216h-.856l-1.564-4.662Z" transform="translate(-295.518 -969.714)" fill="#fff"/>
        <path id="Path_141" data-name="Path 141" d="M343.872,972.807c0-.492-.012-.877-.042-1.262h.835l.054.762h.021a1.963,1.963,0,0,1,1.712-.868,1.774,1.774,0,0,1,1.832,1.984v2.784h-.94V973.52c0-.75-.312-1.386-1.2-1.386a1.344,1.344,0,0,0-1.264.868,1.158,1.158,0,0,0-.063.394v2.814h-.943v-3.4Z" transform="translate(-323.015 -969.369)" fill="#fff"/>
        <path id="Path_142" data-name="Path 142" d="M369.35,962.61h.943v6.841h-.943Z" transform="translate(-342.55 -962.61)" fill="#fff"/>
        <path id="Path_143" data-name="Path 143" d="M380.913,976.315a2.341,2.341,0,0,1-2.483-2.4A2.4,2.4,0,0,1,381,971.44a2.322,2.322,0,0,1,2.493,2.39,2.416,2.416,0,0,1-2.57,2.486Zm.033-.638a1.66,1.66,0,0,0,1.574-1.82,1.584,1.584,0,1,0-1.585,1.82Z" transform="translate(-349.501 -969.369)" fill="#fff"/>
        <path id="Path_144" data-name="Path 144" d="M407.409,975.1a6.988,6.988,0,0,0,.075,1.116h-.847l-.087-.586h-.031a1.994,1.994,0,0,1-1.585.694,1.413,1.413,0,0,1-1.585-1.339c0-1.128,1.114-1.745,3.114-1.733v-.1c0-.385-.117-1.088-1.177-1.079a2.694,2.694,0,0,0-1.36.347l-.213-.568a3.639,3.639,0,0,1,1.712-.406,1.733,1.733,0,0,1,1.979,1.907V975.1Zm-.922-1.262c-1.027-.019-2.2.145-2.2,1.051a.787.787,0,0,0,.877.809,1.305,1.305,0,0,0,1.273-.781.772.772,0,0,0,.042-.27v-.809Z" transform="translate(-368.576 -969.377)" fill="#fff"/>
        <path id="Path_145" data-name="Path 145" d="M430.332,962.61v5.635c0,.415.012.886.042,1.205h-.847l-.042-.809h-.021a1.937,1.937,0,0,1-1.757.915,2.225,2.225,0,0,1-2.228-2.371,2.324,2.324,0,0,1,2.324-2.5,1.782,1.782,0,0,1,1.564.7h.021V962.61Zm-.94,4.073a1.394,1.394,0,0,0-.042-.366,1.361,1.361,0,0,0-1.36-.973,1.6,1.6,0,0,0-1.552,1.792,1.546,1.546,0,0,0,1.531,1.733,1.4,1.4,0,0,0,1.381-1.011,1.306,1.306,0,0,0,.042-.366v-.809Z" transform="translate(-385.517 -962.61)" fill="#fff"/>
        <path id="Path_146" data-name="Path 146" d="M463.4,976.315a2.341,2.341,0,0,1-2.483-2.4,2.406,2.406,0,0,1,2.57-2.477,2.323,2.323,0,0,1,2.5,2.39,2.415,2.415,0,0,1-2.568,2.486Zm.033-.638a1.66,1.66,0,0,0,1.574-1.82,1.584,1.584,0,1,0-1.585,1.82Z" transform="translate(-412.646 -969.369)" fill="#fff"/>
        <path id="Path_147" data-name="Path 147" d="M487.442,972.807c0-.492-.012-.877-.042-1.262h.835l.054.762h.021a1.963,1.963,0,0,1,1.712-.868,1.774,1.774,0,0,1,1.832,1.984v2.784h-.943V973.52c0-.75-.31-1.386-1.2-1.386a1.344,1.344,0,0,0-1.264.868,1.158,1.158,0,0,0-.063.394v2.814h-.943Z" transform="translate(-432.916 -969.369)" fill="#fff"/>
        <path id="Path_148" data-name="Path 148" d="M521.8,967.13v1.116h1.348v.645H521.8v2.514c0,.577.183.905.706.905a1.909,1.909,0,0,0,.546-.059l.042.645a2.814,2.814,0,0,1-.835.115,1.433,1.433,0,0,1-1.018-.356,1.69,1.69,0,0,1-.363-1.224v-2.544h-.8v-.645h.8v-.858Z" transform="translate(-457.932 -966.07)" fill="#fff"/>
        <path id="Path_149" data-name="Path 149" d="M537.7,962.61h.943v2.91h.021a1.6,1.6,0,0,1,.675-.6,1.985,1.985,0,0,1,.964-.242,1.772,1.772,0,0,1,1.808,1.993v2.774h-.943V966.77c0-.762-.31-1.388-1.2-1.388a1.355,1.355,0,0,0-1.264.849.929.929,0,0,0-.066.406v2.814H537.7V962.61Z" transform="translate(-471.42 -962.61)" fill="#fff"/>
        <path id="Path_150" data-name="Path 150" d="M562.342,973.991a1.578,1.578,0,0,0,1.766,1.618,3.888,3.888,0,0,0,1.435-.232l.171.6a4.612,4.612,0,0,1-1.735.3,2.3,2.3,0,0,1-2.549-2.35,2.373,2.373,0,0,1,2.441-2.523A2.041,2.041,0,0,1,566,973.6a1.994,1.994,0,0,1-.031.4Zm2.753-.607a1.252,1.252,0,0,0-1.3-1.379,1.466,1.466,0,0,0-1.445,1.379Z" transform="translate(-489.585 -969.339)" fill="#fff"/>
      </g>
    </g>
  </g>
</svg>
